<?xml version="1.0" encoding="UTF-8"?>
<svg width="1200pt" height="1200pt" version="1.1" viewBox="0 0 1200 1200" xmlns="http://www.w3.org/2000/svg">
 <g fill="#c2dc63">
  <path d="m1138.8 659.64c-3.6016-26.641-35.879-49.32-57.84-58.559-37.199-15.719-79.801-14.52-118.8-7.5586-30.84 5.6406-62.641-1.3203-92.16-13.801-103.68-43.922-294.84-260.76-310.92-276-23.398-21.719-61.078-20.762-83.879 2.1602-27.359 26.879-47.641 60-60.238 98.398-0.96094 3-2.3984 5.8789-4.0781 8.6406-7.4414-8.0391-16.922-13.441-27.719-15-24-3.3594-46.68 13.199-56.879 39.84-37.441-3.6016-66.359-19.801-91.922-34.199-29.16-16.441-54.238-30.602-82.68-20.762-16.559 5.8789-28.32 16.441-35.762 32.281-0.12109 0.12109-0.12109 0.35938-0.23828 0.60156-0.12109 0.12109-0.12109 0.23828-0.12109 0.48047-10.078 21.719-11.762 50.641-13.559 84.121l-0.84375 16.914c-2.7617 47.281-9 97.801-35.641 147.6-0.35938 0.83984-0.71875 1.6797-0.96094 2.5195-0.12109 0.35938-0.12109 0.60156-0.12109 0.83984v0.12109c-13.559 62.398 3.8398 107.76 51.121 135.36-0.35938 2.8789 0.23828 5.8789 2.2812 8.0391 63.84 66.602 142.8 100.32 234.48 100.32 5.3984 0 11.281-0.12109 13.68-6.2383l31.078-80.879c18.48-2.2812 38.16-5.0391 60.238-8.7617 98.879 27.961 213 44.039 319.44 44.039 131.4 0 251.04-24.48 315.72-81.48 36.602-32.398 52.203-72.48 46.324-119.04zm-173.28-46.922c75.961-13.68 132.6 4.4414 153 48.238-48.359 112.2-207.24 131.16-339.72 125.64 20.762-33.602 33.602-76.441-0.12109-128.28 37.199-3.3594 67.559-22.801 90.602-57.602 30.359 13.445 64.199 17.887 96.238 12.004zm-345.84 156c-35.16-144.72-117.48-195.12-182.52-211.44l-26.281-48.121c8.6406-10.441 14.52-23.641 16.441-38.281 1.9219-14.762-0.35937-28.801-5.5195-40.68 1.4414-1.8008 3.1211-3.4805 4.3203-5.5195 40.32 46.801 199.92 222.96 328.8 233.64 40.559 52.441 25.801 92.16 1.5586 127.2-43.801-2.6406-89.762-8.3984-136.8-16.801zm-147.48-139.8c1.0781-2.7617 0.83984-5.7617-0.60156-8.2812l-21.359-39.121c54.961 19.199 117.84 67.441 148.56 183.24-65.281-12.719-114.12-27.84-132.72-37.078-9.1211-4.4414-18-8.7617-26.879-12.719zm16.441-309.12c15.602-15.602 42-16.32 57.602-1.8008 15.602 14.762 64.559 68.281 64.559 68.281l-36 45.48c-7.8008 9.8398 7.0781 22.078 14.879 12.238l34.32-43.32c9.2383 9.9609 18.602 19.922 28.32 30l-38.281 48.359c-7.8008 9.8398 7.0781 22.078 14.879 12.238l36.84-46.68c9.6016 9.8398 19.559 19.68 29.641 29.398l-37.68 47.641c-7.8008 9.8398 7.0781 22.078 14.879 12.238l36.961-46.68c43.078 39.961 90.359 77.039 142.56 104.64-19.922 29.16-44.879 44.641-76.32 47.039-127.92 9.6016-312.84-201.12-340.68-233.76 11.762-32.992 29.523-61.793 53.523-85.312zm-108 97.438c6.4805 0.96094 12.238 4.4414 16.801 9.4805-4.9219 3.4805-10.32 6.2383-16.199 7.5586-11.641 2.6406-23.039 3.6016-34.078 3.8398 7.6758-14.039 20.516-22.676 33.477-20.879zm-222.6-16.078c20.281-7.0781 40.922 4.5586 67.078 19.441 26.879 15.238 54.359 29.16 84.84 34.68 30.359 5.5195 70.078 6.3594 96.84-11.039 4.4414 15.48 2.1602 32.398-6 46.199l-3.8398-7.0781c-4.4414-8.2812-14.879-12.719-23.879-9.8398l-123.24 38.641c-49.199-34.078-97.32-79.32-113.04-94.441 5.0391-7.9219 11.879-13.324 21.238-16.562zm-38.758 131.76c15.84 8.6406 45.238 27.719 75.602 61.922l-21.359 55.559c-37.078-0.71875-65.16 2.3984-82.441 5.3984 18.719-41.762 25.199-83.281 28.199-122.88zm106.44-12.844-23.039 54.719c-35.52-37.922-68.641-56.641-81.961-63.121 0 0 3.3594-57.719 8.0391-75.121 18.004 17.285 97.801 81.125 96.961 83.523zm-143.52 157.44c11.398-2.5195 40.801-7.8008 83.879-7.5586l-44.281 115.44c-36.117-22.684-49.078-58.203-39.598-107.88zm268.32 214.92c-83.52-0.48047-155.76-30.602-214.68-89.879l102.12-266.4 142.2-43.441 6.8398 12.48c-5.8789 3.7188-12.359 5.2812-18.602 4.4414-14.039-2.6406-13.801 19.801 3.6016 19.801 8.3984 0 16.68-2.6406 24.359-7.1992l56.641 103.92zm729.24-128.52c-100.68 88.801-372.72 103.2-619.44 32.879-6.8398-2.0391-17.52 1.9219-24.238 3-10.32 1.5586-20.762 3.1211-31.078 4.4414l27.238-71.039c119.64 54.121 255.84 73.922 386.28 73.922 115.56 0 240.72-22.199 299.76-106.08-5.0469 23.512-17.766 44.633-38.523 62.875z"/>
  <path d="m275.76 691.44c1.8008 0.35938 3.4805 0.48047 5.2812 0.48047 15.602 0 29.52-11.52 32.281-27.602 1.5586-8.7617-0.35938-17.641-5.3984-24.84-5.0391-7.1992-12.48-11.879-21-13.32-17.641-3.1211-34.441 9.2383-37.559 27.238-1.5586 8.7617 0.35937 17.641 5.3984 24.84 5.0352 7.082 12.473 11.762 20.996 13.203zm5.8789-46.203c0.71875 0 1.4414 0 2.1602 0.12109 3.4805 0.60156 6.4805 2.5195 8.3984 5.3984 2.0391 2.8789 2.8789 6.4805 2.1602 10.078-1.3203 7.4414-8.5195 12.48-15.602 11.398-3.4805-0.60156-6.4805-2.5195-8.3984-5.3984-2.0391-2.8789-2.8789-6.4805-2.1602-10.078 1.1992-6.7188 6.9609-11.52 13.441-11.52z"/>
  <path d="m325.8 721.44c-17.52-3.1211-34.441 9.2383-37.559 27.238-1.5586 8.7617 0.35937 17.52 5.3984 24.84 5.0391 7.1992 12.48 11.879 21 13.32 1.8008 0.35938 3.4805 0.48047 5.2812 0.48047 15.602 0 29.52-11.52 32.281-27.602 1.5586-8.7617-0.35938-17.641-5.3984-24.84-5.043-7.3203-12.484-12-21.004-13.438zm-8.0391 46.078c-3.4805-0.60156-6.4805-2.5195-8.3984-5.3984-2.0391-2.8789-2.7617-6.4805-2.1602-10.078 1.1992-6.7188 6.9609-11.52 13.441-11.52 0.71875 0 1.4414 0 2.1602 0.12109 3.4805 0.60156 6.4805 2.5195 8.3984 5.3984 2.0391 2.8789 2.8789 6.4805 2.1602 10.078-1.3242 7.5586-8.4023 12.48-15.602 11.398z"/>
  <path d="m370.2 658.2c-3.1211-4.4414-9-5.3984-13.32-2.2812l-117.96 85.559c-9.7188 7.0781 0.83984 23.398 11.16 15.84l117.96-85.559c4.3203-3.1172 5.2812-9.1172 2.1602-13.559z"/>
 </g>
</svg>
