<?xml version="1.0" encoding="UTF-8"?>
<svg width="1200pt" height="1200pt" version="1.1" viewBox="0 0 1200 1200" xmlns="http://www.w3.org/2000/svg">
 <g fill="#ff814a">
  <path d="m128.84 1030.5h375.8c9.4453 28.945 36.395 49.078 67.848 49.078l412.95 0.003906c35.102 0 64.766-24.984 70.559-59.41l4.6445-27.707c2.2305-13.246-1.4883-26.746-10.199-37.031-4.8828-5.7852-11.113-10.008-17.965-12.781v-43.727c4.4141-1.4023 9.5898-2.2812 16.801-2.2812 5.9531 0 11.004-4.3555 11.867-10.246 0.19141-1.2969 3.3828-25.727-14.988-47.051 18.254-7.6445 31.105-25.621 31.105-46.523v-12.012c0-25.5-19.176-46.43-43.906-49.789v-42.973c16.355-5.9297 28.152-21.469 28.152-39.84v-13.969c0-83.387-67.848-151.25-151.25-151.25l-164.23-0.007812v-100.67c0-20.953-4.1406-41.27-12.289-60.371l-49.609-116 0.003906-71.676c0-6.6367-5.3633-12-12-12h-481.39c-6.6367 0-12 5.3633-12 12v71.676l-49.586 116c-8.1836 19.094-12.312 39.406-12.312 60.371v636.18c-0.011719 6.625 5.3633 12 11.988 12zm908.12-42-4.6445 27.695c-3.8281 22.824-23.555 39.383-46.883 39.383l-412.95 0.003906c-23.328 0-43.043-16.559-46.871-39.383l-4.6562-27.695c-1.0547-6.2773 0.71875-12.695 4.8359-17.566 3.3594-3.9609 7.9805-6.5039 13.02-7.3906h60.648c23.93 0 46.441 9.2539 63.359 26.051l33.984 33.758c2.3398 2.3281 5.3984 3.4922 8.4609 3.4922 3.0586 0 6.1211-1.1641 8.4609-3.4805l33.984-33.758c16.934-16.801 39.445-26.062 63.371-26.062h208c5.0508 0.88672 9.6602 3.4336 13.02 7.3906 4.1367 4.8672 5.9141 11.273 4.8594 17.562zm-225.85-48.973c-30.312 0-58.824 11.734-80.281 33.023l-25.535 25.367-25.535-25.367c-21.445-21.289-49.957-33.023-80.27-33.023h-51.695v-30.504c7.0781 2.7852 15.84 4.9453 28.477 4.9453 19.801 0 30.156-5.3047 39.277-9.9844 8.0039-4.1055 14.328-7.3438 28.332-7.3438 13.992 0 20.305 3.2539 28.309 7.3438 9.1211 4.6797 19.465 9.9844 39.254 9.9844 19.789 0 30.145-5.3047 39.266-9.9844 8.0039-4.1055 14.316-7.3438 28.32-7.3438 13.992 0 20.305 3.2539 28.309 7.3438 9.1211 4.6797 19.465 9.9844 39.254 9.9844 19.777 0 30.133-5.3047 39.254-9.9844 7.9922-4.1172 14.293-7.3438 28.285-7.3438 13.992 0 20.293 3.2383 28.285 7.3438 9.1328 4.6797 19.477 9.9844 39.254 9.9844 11.641 0 19.98-1.8594 26.746-4.3203v29.879zm198.9-56.891c-7.9922 4.1055-14.293 7.332-28.285 7.332-13.992 0-20.293-3.2383-28.285-7.3438-9.1328-4.6797-19.477-9.9844-39.254-9.9844s-30.133 5.3047-39.254 9.9844c-7.9922 4.1172-14.293 7.3438-28.285 7.3438-13.992 0-20.305-3.2539-28.309-7.3438-9.1211-4.6797-19.465-9.9844-39.254-9.9844-19.789 0-30.145 5.3047-39.266 9.9844-8.0039 4.1055-14.316 7.3438-28.32 7.3438-13.992 0-20.305-3.2539-28.309-7.3438-9.1211-4.6797-19.465-9.9844-39.254-9.9844-19.801 0-30.156 5.3047-39.277 9.9844-8.0039 4.1055-14.328 7.3438-28.332 7.3438-14.004 0-20.328-3.2539-28.332-7.3438-6.7188-3.4336-14.09-7.2227-25.379-8.9766 2.4375-8.4609 7.9922-20.387 20.629-30.371h470.28c0.42188 0.3125 0.69531 0.73047 1.1641 0.99609 15.562 8.7227 20.664 20.832 22.246 29.172-12.203 1.6445-19.918 5.5898-26.926 9.1914zm43.25-101.84v12.012c0 14.605-12 26.473-26.746 26.473h-495.1c-14.746 0-26.746-11.867-26.746-26.473v-12.012c0-14.605 12-26.473 26.746-26.473 1.1875 0 2.2812-0.35938 3.3594-0.68359 0.64844 0.10937 1.2344 0.38281 1.9062 0.38281h211.87c22.32 0 43.297 8.6289 59.074 24.289l35.773 35.531c2.3398 2.3164 5.3984 3.4805 8.4609 3.4805 3.0586 0 6.1211-1.1641 8.4609-3.4922l35.746-35.52c15.551-15.445 37.094-24.289 59.09-24.289h63.59c0.50391 0.058594 0.9375 0.28906 1.4531 0.28906h6.3125c14.746 0.011719 26.746 11.879 26.746 26.484zm-43.91-50.773h-54.191c-28.285 0-55.98 11.387-75.996 31.262l-27.301 27.133-27.324-27.145c-20.293-20.16-47.281-31.246-75.984-31.246l-199.86-0.003906v-39.312h460.67v39.312zm28.152-95.797v13.969c0 10.211-8.3047 18.516-18.516 18.516h-476.28c-10.211 0-18.516-8.3047-18.516-18.516v-13.969c0-70.164 57.086-127.25 127.25-127.25h258.83c70.156 0.011719 127.24 57.082 127.24 127.25zm-834.75-487.95h457.39v48.973h-457.39zm152.61 72.973h152.16v214.33h-152.16zm-214.52 163.08c0-17.711 3.4922-34.836 10.379-50.93l47.941-112.15h132.2v226.33c0 6.6367 5.3633 12 12 12h176.16c6.6367 0 12-5.3633 12-12v-226.33h132.19l47.953 112.14c6.875 16.105 10.367 33.254 10.367 50.941v100.67h-70.609c-83.387 0-151.25 67.848-151.25 151.25v13.969c0 16.98 10.078 31.559 24.504 38.363v44.438c-24.781 3.3125-44.016 24.254-44.016 49.801v12.012c0 21.434 13.547 39.66 32.531 46.969-16.523 21.66-16.547 43.848-16.535 45 0.070312 6.5742 5.4258 11.867 12 11.867 6.3477 0 11.074 0.69531 15.145 1.8008v44.762c-6.2031 2.7852-11.809 6.8867-16.309 12.215-8.7109 10.273-12.422 23.773-10.199 37.043l2.3516 14.027-358.81-0.003906z"/>
  <path d="m828.24 555.94c3.3359 0 6.6719-1.3906 9.0352-4.1055l7.6445-8.7461c4.3555-4.9922 3.8516-12.574-1.1406-16.934-4.9805-4.3672-12.574-3.8516-16.934 1.1406l-7.6445 8.7461c-4.3555 4.9922-3.8516 12.574 1.1406 16.934 2.2734 1.9922 5.082 2.9648 7.8984 2.9648z"/>
  <path d="m684.1 551.55c3.3359 0 6.6719-1.3906 9.0352-4.1055l7.6445-8.7461c4.3555-4.9922 3.8516-12.574-1.1406-16.934-4.9805-4.3672-12.574-3.8516-16.934 1.1406l-7.6445 8.7461c-4.3555 4.9922-3.8516 12.574 1.1406 16.934 2.2695 1.9961 5.0781 2.9648 7.8984 2.9648z"/>
  <path d="m786.95 597.71 10.883 4.1406c1.4023 0.53906 2.8438 0.78125 4.2617 0.78125 4.8359 0 9.3945-2.9414 11.219-7.7383 2.3516-6.2031-0.75781-13.129-6.9492-15.48l-10.883-4.1289c-6.1914-2.3516-13.141 0.74219-15.48 6.9492-2.3516 6.2031 0.75781 13.125 6.9492 15.477z"/>
  <path d="m963.61 610.23 10.883 4.1523c1.4023 0.53906 2.8555 0.78125 4.2734 0.78125 4.8242 0 9.3828-2.9414 11.219-7.7266 2.3516-6.2031-0.74219-13.141-6.9375-15.492l-10.883-4.1523c-6.2148-2.3867-13.129 0.74219-15.492 6.9375-2.3633 6.2148 0.74609 13.148 6.9375 15.5z"/>
  <path d="m920.89 555.14 10.871 4.1406c1.4023 0.53906 2.8438 0.78125 4.2617 0.78125 4.8359 0 9.3945-2.9414 11.219-7.7383 2.3516-6.2031-0.74219-13.129-6.9492-15.48l-10.871-4.1406c-6.1914-2.3633-13.141 0.74219-15.48 6.9492-2.3477 6.2109 0.75781 13.137 6.9492 15.488z"/>
  <path d="m746.71 553.07 10.871 4.1406c1.4023 0.53906 2.8438 0.78125 4.2617 0.78125 4.8359 0 9.3945-2.9414 11.219-7.7383 2.3516-6.2031-0.74219-13.129-6.9492-15.48l-10.871-4.1406c-6.2148-2.375-13.129 0.74219-15.48 6.9492-2.3516 6.2031 0.74609 13.137 6.9492 15.488z"/>
  <path d="m630.64 572.35c4.8359 0 9.3945-2.9414 11.219-7.7383 2.3516-6.2031-0.74219-13.129-6.9492-15.48l-10.871-4.1406c-6.2031-2.3516-13.129 0.74219-15.48 6.9492-2.3516 6.2031 0.74219 13.129 6.9492 15.48l10.871 4.1406c1.3945 0.53906 2.8438 0.78906 4.2617 0.78906z"/>
  <path d="m879.52 590.52c0.57422 0 1.1641-0.035156 1.7539-0.13281l11.531-1.6914c6.5625-0.96094 11.102-7.0547 10.141-13.609-0.94922-6.5625-7.0664-11.23-13.609-10.141l-11.531 1.6914c-6.5625 0.96094-11.102 7.0547-10.141 13.609 0.86328 5.9883 6 10.273 11.855 10.273z"/>
  <path d="m690.29 579.41c0.86328 5.9766 5.9883 10.273 11.855 10.273 0.57422 0 1.1523-0.035157 1.7383-0.13281l11.52-1.6797c6.5625-0.94922 11.113-7.043 10.152-13.598-0.94922-6.5625-7.0664-11.195-13.598-10.152l-11.52 1.6797c-6.5625 0.96484-11.109 7.0586-10.148 13.609z"/>
  <path d="m640.43 586.31-11.535 1.6914c-6.5625 0.96094-11.102 7.0547-10.141 13.609 0.86328 5.9766 6 10.262 11.855 10.262 0.57422 0 1.1641-0.035156 1.7539-0.13281l11.531-1.6914c6.5625-0.96094 11.102-7.0547 10.141-13.609-0.94531-6.5547-7.043-11.16-13.605-10.129z"/>
  <path d="m581.98 577.63-9.0859 7.2461c-5.1836 4.1406-6.0234 11.688-1.8828 16.859 2.3633 2.9648 5.8555 4.5117 9.3828 4.5117 2.6289 0 5.2578-0.85156 7.4766-2.6289l9.0859-7.2461c5.1836-4.1406 6.0234-11.688 1.8828-16.859-4.1172-5.1602-11.664-6.0234-16.859-1.8828z"/>
  <path d="m460.44 263.58h-57.996c-6.6367 0-12 5.3633-12 12s5.3633 12 12 12h57.996c6.6367 0 12-5.3633 12-12 0-6.6328-5.3672-12-12-12z"/>
  <path d="m460.44 315.71h-57.996c-6.6367 0-12 5.3633-12 12s5.3633 12 12 12h57.996c6.6367 0 12-5.3633 12-12s-5.3672-12-12-12z"/>
  <path d="m460.44 367.84h-57.996c-6.6367 0-12 5.3633-12 12 0 6.6367 5.3633 12 12 12h57.996c6.6367 0 12-5.3633 12-12 0-6.6367-5.3672-12-12-12z"/>
 </g>
</svg>
