<?xml version="1.0" encoding="UTF-8"?>
<svg width="1200pt" height="1200pt" version="1.1" viewBox="0 0 1200 1200" xmlns="http://www.w3.org/2000/svg">
 <g fill="#ffd65b">
  <path d="m350 987.5c7 0 12.5-5.5 12.5-12.5v-300c0-7-5.5-12.5-12.5-12.5s-12.5 5.5-12.5 12.5v300c0 7 5.5 12.5 12.5 12.5z"/>
  <path d="m250 937.5c7 0 12.5-5.5 12.5-12.5v-200c0-7-5.5-12.5-12.5-12.5s-12.5 5.5-12.5 12.5v200c0 7 5.5 12.5 12.5 12.5z"/>
  <path d="m145.25 836.5c1.5 0.75 3 1 4.75 1s3.25-0.25 4.75-1c1.5-0.5 3-1.5 4-2.75 1.25-1 2.25-2.5 2.75-4 0.75-1.5 1-3 1-4.75s-0.25-3.25-1-4.75c-0.5-1.5-1.5-3-2.75-4-3.25-3.5-9-4.75-13.5-2.75-1.5 0.5-3 1.5-4 2.75-1.25 1-2.25 2.5-2.75 4-0.75 1.5-1 3-1 4.75 0 3.25 1.25 6.5 3.75 8.75 1 1.25 2.5 2.25 4 2.75z"/>
  <path d="m1011.2 713.75c-3.5-34-21.75-64-48.75-82v-106.75c0-96.5-37.75-187.5-106.25-256.25-68.75-68.5-159.75-106.25-256.25-106.25-200 0-362.5 162.5-362.5 362.5v106.5c-27 18.25-45.25 48-48.75 82-56.75 6-101.25 53.25-101.25 111.5s44.5 105.5 101.25 111.25c5.75 56.75 53 101.25 111.25 101.25h100c7 0 12.5-5.5 12.5-12.5v-400c0-7-5.5-12.5-12.5-12.5h-87.5v-87.5c0-158.5 129-287.5 287.5-287.5s287.5 129 287.5 287.5v87.5h-87.5c-7 0-12.5 5.5-12.5 12.5v400c0 7 5.5 12.5 12.5 12.5h100c58.25 0 105.5-44.5 111.25-101.25 56.75-5.75 101.25-53.25 101.25-111.25s-44.5-105.5-101.25-111.25zm-823.75 197.75c-42.25-6-75-42.75-75-86.5s32.75-80.5 75-86.5zm700 101h-75v-375h75zm-600-1c-42.25-6-75-42.75-75-86.5v-200c0-44 32.75-80.5 75-86.5zm100-374v375h-75v-375zm212.5-425c-172.25 0-312.5 140.25-312.5 312.5v88.75c-8.75 1-17 2.75-25 5.75v-94.5c0-186 151.5-337.5 337.5-337.5 90 0 174.75 35 238.75 98.75 63.75 64 98.75 148.75 98.75 238.75v94.5c-8-2.75-16.25-4.75-25-5.75v-88.75c0-172.25-140.25-312.5-312.5-312.5zm387.5 712.5c0 44-32.75 80.5-75 86.5v-373c42.25 6 75 42.75 75 86.5zm25-13.5v-173.25c42.25 6 75 42.75 75 86.5s-32.75 80.75-75 86.75z"/>
  <path d="m850 987.5c7 0 12.5-5.5 12.5-12.5v-300c0-7-5.5-12.5-12.5-12.5s-12.5 5.5-12.5 12.5v300c0 7 5.5 12.5 12.5 12.5z"/>
  <path d="m950 712.5c-7 0-12.5 5.5-12.5 12.5v200c0 7 5.5 12.5 12.5 12.5s12.5-5.5 12.5-12.5v-200c0-7-5.5-12.5-12.5-12.5z"/>
  <path d="m1058.8 816.25c-1-1.25-2.5-2.25-4-2.75-4.5-2-10-0.75-13.5 2.75-1.25 1-2.25 2.5-2.75 4-0.75 1.5-1 3-1 4.75s0.25 3.25 1 4.75c0.5 1.5 1.5 3 2.75 4 1 1.25 2.5 2.25 4 2.75 1.5 0.75 3 1 4.75 1s3.25-0.25 4.75-1c1.5-0.5 3-1.5 4-2.75 2.5-2.25 3.75-5.5 3.75-8.75 0-1.75-0.25-3.25-1-4.75-0.5-1.5-1.5-3-2.75-4z"/>
 </g>
</svg>
