<?xml version="1.0" encoding="UTF-8"?>
<svg width="1200pt" height="1200pt" version="1.1" viewBox="0 0 1200 1200" xmlns="http://www.w3.org/2000/svg">
 <g fill="#3b6af9">
  <path d="m825 306.25h-12.012l-23.562-62.828c-2.7305-7.3242-9.7383-12.172-17.551-12.172h-343.75c-7.8125 0-14.82 4.8477-17.555 12.172l-23.559 62.828h-12.012c-24.121 0-43.75 19.629-43.75 43.75v50c0 17.926 10.863 33.336 26.336 40.09l11.66 122.86c-13.703 8.5117-22.707 24.164-21.102 41.164 0.015625 0.16016 16.527 175.01 16.527 175.01 1.6523 17.395 13.199 31.41 28.762 36.973l8.6641 90.469c3.418 35.449 32.836 62.184 68.41 62.184h258.98c35.57 0 64.992-26.734 68.434-62.207l8.6406-90.449c15.562-5.5664 27.105-19.582 28.758-36.992l16.527-175c1.5625-17.059-7.3828-32.707-21.098-41.195l11.656-122.82c15.477-6.7539 26.34-22.164 26.34-40.09v-50c0-24.121-19.629-43.75-43.75-43.75zm-418.7 250-10.676-112.5h408.75l-10.676 112.5h-387.4zm-37.551-206.25c0-3.4414 2.8086-6.25 6.25-6.25h275c10.352 0 18.75-8.3984 18.75-18.75s-8.3984-18.75-18.75-18.75h-222.95l14.062-37.5h317.77l14.062 37.5h-47.949c-10.352 0-18.75 8.3984-18.75 18.75s8.3984 18.75 18.75 18.75h100c3.4414 0 6.25 2.8086 6.25 6.25v50c0 3.4414-2.8086 6.25-6.25 6.25h-450c-3.4414 0-6.25-2.8086-6.25-6.25zm429.22 425.56c-0.29297 3.2461-2.9766 5.6875-6.2266 5.6875h-241.75c-10.352 0-18.75 8.3984-18.75 18.75s8.3984 18.75 18.75 18.75h218.62l-8.0273 84.203c-1.5625 16.137-14.941 28.297-31.102 28.297h-258.99c-16.16 0-29.539-12.16-31.078-28.273l-8.0469-84.227h43.617c10.352 0 18.75-8.3984 18.75-18.75s-8.3984-18.75-18.75-18.75h-66.746c-3.2461 0-5.9336-2.4414-6.2266-5.6641l-16.527-174.96c-0.37109-3.6523 2.4922-6.8633 6.207-6.8711h416.57c3.6055 0 6.5938 3.2148 6.2266 6.8438 0 0.003906-16.531 174.97-16.531 174.97z"/>
  <path d="m525 668.75h150c10.352 0 18.75-8.3984 18.75-18.75s-8.3984-18.75-18.75-18.75h-150c-10.352 0-18.75 8.3984-18.75 18.75s8.3984 18.75 18.75 18.75z"/>
  <path d="m725 706.25h-250c-10.352 0-18.75 8.3984-18.75 18.75s8.3984 18.75 18.75 18.75h250c10.352 0 18.75-8.3984 18.75-18.75s-8.3984-18.75-18.75-18.75z"/>
 </g>
</svg>
