<?xml version="1.0" encoding="UTF-8"?>
<svg width="1200pt" height="1200pt" version="1.1" viewBox="0 0 1200 1200" xmlns="http://www.w3.org/2000/svg">
 <g fill="#70d258">
  <path d="m230 280.39c23.805 0.33984 46.77-8.7812 63.848-25.367 17.078-16.582 26.875-39.27 27.234-63.07-0.10938-15.965-4.5469-31.602-12.84-45.242-4-5.957-10.672-9.5664-17.848-9.6562-7.1719-0.085937-13.934 3.3555-18.078 9.2148l-2.332 3.2969h0.003906c-2.3438 3.3789-3.6953 7.3438-3.9102 11.449-0.21484 4.1055 0.71484 8.1914 2.6875 11.797 3.1992 5.8516 4.6914 12.48 4.3164 19.141-0.62109 10.98-5.4414 21.301-13.457 28.828-8.0195 7.5273-18.625 11.684-29.625 11.609-11.066 0.33203-21.816-3.7383-29.891-11.316-8.0781-7.582-12.816-18.055-13.188-29.121 0.074219-7.0625 2.0195-13.977 5.6406-20.039l37.441-55.801 0.11719 0.12109 19.863-29.215-0.003907-0.003906c4.8359-7.1523 5.4883-16.344 1.7109-24.109s-11.41-12.922-20.023-13.535c-8.6133-0.60938-16.898 3.4219-21.734 10.574l-57.566 85.688-0.72266 1.0781c-8.2188 13.668-12.613 29.293-12.723 45.242 0.35938 23.801 10.156 46.488 27.234 63.07 17.078 16.586 40.043 25.707 63.844 25.367z"/>
  <path d="m586.15 441.02h112.83c12.668 0.019531 25 4.0977 35.184 11.641 10.184 7.543 17.68 18.148 21.387 30.266 2.418 8.2188 9.0352 14.527 17.363 16.547 8.3242 2.0234 17.098-0.54688 23.02-6.7422 5.918-6.1914 8.0859-15.074 5.6914-23.297-6.6406-22.07-20.207-41.414-38.691-55.176-18.484-13.762-40.91-21.207-63.953-21.238h-111.41c-8.4609 0.15625-16.715-2.6133-23.371-7.8359-6.6562-5.2266-11.305-12.586-13.164-20.84-2.125-10.535 0.58594-21.469 7.3906-29.793 6.8008-8.3242 16.977-13.156 27.723-13.172h212.94c21.051 0.30078 41.5-7.0195 57.57-20.617 16.074-13.598 26.684-32.551 29.875-53.359 3.1992-24.336-4.2422-48.867-20.414-67.328-16.176-18.461-39.516-29.059-64.059-29.086h-19.316c-8.5742 0-16.496 4.5742-20.781 12-4.2891 7.4258-4.2891 16.574 0 24 4.2852 7.4258 12.207 12 20.781 12h17.836c8.7891-0.16016 17.359 2.7148 24.273 8.1367 6.9141 5.4258 11.746 13.066 13.68 21.641 2.2031 10.941-0.61719 22.297-7.6797 30.938-7.0664 8.6406-17.633 13.66-28.793 13.676h-212.98c-20.711-0.29688-40.828 6.9062-56.641 20.285-15.812 13.379-26.25 32.027-29.387 52.5-3.1484 23.941 4.168 48.078 20.082 66.238 15.91 18.164 38.875 28.59 63.02 28.617z"/>
  <path d="m580 792.86c0-6.6328-2.6367-12.992-7.3242-17.68-4.6875-4.6914-11.047-7.3242-17.68-7.3242-6.6289 0-12.988 2.6328-17.68 7.3203-4.6875 4.6875-7.3203 11.051-7.3242 17.68 0 6.6328 2.6367 12.992 7.3242 17.68s11.047 7.3242 17.68 7.3242c6.6289 0 12.988-2.6367 17.68-7.3242 4.6875-4.6875 7.3203-11.047 7.3242-17.676z"/>
  <path d="m520.8 848.9c0 10.855-8.8008 19.652-19.652 19.652-10.852 0-19.652-8.7969-19.652-19.652 0-10.852 8.8008-19.652 19.652-19.652 10.852 0 19.652 8.8008 19.652 19.652"/>
  <path d="m597.8 889.9c0 10.855-8.7969 19.652-19.648 19.652-10.855 0-19.652-8.7969-19.652-19.652 0-10.852 8.7969-19.652 19.652-19.652 10.852 0 19.648 8.8008 19.648 19.652"/>
  <path d="m1176 970.39h-101.6c-0.76172-73.422-9.5508-150.01-57.645-218.16-2.1641-3-4.3164-6-6.7227-9h0.003906c1.0117-11.031 0.48438-22.152-1.5703-33.039 12.816-15.238 27.27-29.023 43.094-41.102 3.5078 0.29297 6.9727 0.94531 10.344 1.9453 14.762 5.082 30.887 4.5 45.246-1.6289 10.922-5.0781 20.191-13.137 26.738-23.246 6.543-10.109 10.102-21.863 10.262-33.906 0.03125-10.598-3.0703-20.965-8.9062-29.805-5.8398-8.8398-14.156-15.762-23.91-19.895l-3.5586-1.5586c-2.3438-1.0078-4.9961-2.1562-5.6719-2.5781h0.003906c-0.95703-2.1797-1.7188-4.4375-2.2773-6.75-1.2539-4.8398-2.9102-9.5703-4.9492-14.133-8.1133-16.508-23.027-28.648-40.836-33.246-15.145-4.4414-31.375-3.3672-45.801 3.0352-10.391 5.0312-19.164 12.875-25.324 22.641-6.1641 9.7656-9.4688 21.059-9.5391 32.605-0.60937 6.3633 1.3438 12.707 5.4297 17.621s9.9648 7.9961 16.332 8.5547c6.3672 0.5625 12.695-1.4414 17.578-5.5664 4.8828-4.125 7.9141-10.031 8.4258-16.402 0.73828-8.8008 2.7656-13.832 7.1367-15.84v0.003906c4.1055-1.5977 8.6289-1.75 12.832-0.43359 4.2734 0.95703 7.9805 3.6016 10.27 7.3359 0.91797 2.2422 1.6719 4.5508 2.2656 6.9023 2.5469 12.457 9.3398 23.648 19.215 31.664 4.9375 3.543 10.293 6.457 15.945 8.6836l2.7539 1.1953c3.8086 1.7227 4.582 3.6328 4.5859 6.1406-0.17188 2.8398-1.1055 5.5859-2.707 7.9414-1.6016 2.3555-3.8086 4.2344-6.3906 5.4414-2.5664 1.1719-4.5117 0.98438-13.031-1.2305-10.547-3.3789-21.742-4.2305-32.676-2.4844-14.734 2.8828-31.207 16.766-55.793 42.43l-0.10938-0.13281-0.003906-0.003906c-26.617-25.051-64.449-34.258-99.605-24.238-13.367-6.6875-27.156-12.5-41.277-17.398-56.723-20.242-117.94-24.395-176.88-12-50.406 12.32-98.117 33.797-140.76 63.359-13.922 9-27.961 17.762-42 26.641-24.961 15.602-50.883 31.922-75.605 49.199-14.898 10.262-28.73 22.004-41.277 35.039v-307.2c-0.054687-18.688-7.5117-36.59-20.734-49.793-13.223-13.199-31.141-20.625-49.824-20.648h-51.234c-1.3359-2.3047-2.668-4.4844-3.9102-6.4648-5.418-7.4297-8.3359-16.387-8.3359-25.582 0-9.1953 2.918-18.152 8.3359-25.582 3.7305-5.6523 6.9375-11.629 9.582-17.859 3.0469-7.4102 2.2031-15.852-2.2461-22.512-4.4492-6.6641-11.922-10.672-19.934-10.699-4.7109-0.0625-9.3359 1.2969-13.27 3.8984-3.9297 2.6016-6.9883 6.3242-8.7773 10.688-1.6602 3.8516-3.6797 7.5352-6.0352 11.008-16.465 24.496-20.188 55.402-10.008 83.105h-47.168c-18.676 0.027344-36.574 7.457-49.777 20.664-13.207 13.203-20.637 31.102-20.664 49.777v624.96h-50.039c-8.5742 0-16.496 4.5742-20.785 12-4.2852 7.4258-4.2852 16.574 0 24 4.2891 7.4258 12.211 12 20.785 12h496.8v-0.35938l387.12-0.003906c46.062 0.11328 91.543-10.277 132.98-30.387s77.754-49.402 106.17-85.652l12.605-15.961h16.316c6.3555-0.019531 12.441-2.5664 16.922-7.0781 4.5586-4.4453 7.1133-10.555 7.0781-16.922-0.019531-6.3594-2.5508-12.453-7.0508-16.949-4.4961-4.4961-10.59-7.0312-16.949-7.0508zm-855.96 132.36h-198v-624.96 0.003906c0.011719-5.9492 2.3789-11.652 6.5859-15.855 4.207-4.207 9.9062-6.5742 15.855-6.5859h10.723v195.39c0 8.5742 4.5742 16.5 12 20.785 7.4258 4.2891 16.574 4.2891 24 0 7.4258-4.2852 12-12.211 12-20.785v-195.39h30.797v107.07c0 8.5742 4.5742 16.496 12 20.781 7.4258 4.2891 16.574 4.2891 24 0 7.4258-4.2852 12-12.207 12-20.781v-107.07h15.48c5.9648-0.011718 11.695 2.3438 15.926 6.5508 4.2266 4.207 6.6133 9.9219 6.6328 15.891zm560.4-411c4.4414-1.5586 8.875-2.8789 13.199-4.0781 7.1172-1.9531 14.461-2.9609 21.84-3 13.09-0.65234 25.879 4.0742 35.402 13.078 8.1719 9.5117 12.383 21.797 11.762 34.32-0.015625 7.3438-1.0234 14.652-3 21.723l-0.71875 2.5195c-14.645 50.762-44.164 116.76-102 148.56h-0.003906c-15.246 8.2266-32.66 11.547-49.863 9.5078s-33.359-9.3398-46.258-20.906c-14.391-12.492-24.062-29.539-27.402-48.297-3.3398-18.758-0.14844-38.094 9.043-54.785 29.637-53.758 88.922-83.039 138-98.637zm-512.4 176.52v0.003906c15.43-32.008 39.176-59.281 68.762-78.961 23.762-16.68 49.082-32.52 73.684-48 14.277-8.8789 28.477-17.879 42.598-27h-0.003906c37.809-26.34 80.102-45.574 124.8-56.762 46.508-9.7852 94.758-7.3477 140.04 7.082-49.086 20.816-90.242 56.762-117.48 102.6-14.508 26.211-19.586 56.605-14.391 86.113 5.1992 29.504 20.359 56.332 42.949 76.008 24.426 21.645 55.926 33.594 88.559 33.602 21.895 0.066406 43.449-5.4258 62.645-15.961 34.637-19.895 63.535-48.422 83.875-82.801 11.52-18.719 21.242-38.488 29.039-59.039 25.664 48.156 32.5 102.08 33.215 165.24h-658.29zm539.88 234.12h-539.88v-84h729.6c-23.957 26.531-53.23 47.723-85.918 62.195-32.688 14.473-68.055 21.902-103.8 21.805z"/>
 </g>
</svg>
