<?xml version="1.0" encoding="UTF-8"?>
<svg width="1200pt" height="1200pt" version="1.1" viewBox="0 0 1200 1200" xmlns="http://www.w3.org/2000/svg">
 <path d="m464.11 267.49c-54.316 0-98.277 43.949-98.277 98.242v272.06c0 54.297 43.965 98.242 98.277 98.242h272.16c54.316 0 98.277-43.949 98.277-98.242v-272.06c0-54.297-43.965-98.242-98.277-98.242zm0 15.113h272.16c46.199 0 83.16 36.945 83.16 83.129v272.06c0 46.184-36.957 83.129-83.16 83.129h-272.16c-46.199 0-83.16-36.945-83.16-83.129v-272.06c0-46.184 36.957-83.129 83.16-83.129zm30.238 68.016v60.457h-60.48v15.113h60.48v60.457h15.121v-60.457h60.48v-15.113h-60.48v-60.457zm136.08 60.457v15.113h136.08v-15.113zm-171.28 135.32-10.633 10.863 42.762 42.746-42.762 42.746 10.633 10.629 42.762-42.746 42.762 42.746 10.867-10.629-42.762-42.746 42.762-42.746-10.867-10.863-42.762 42.746zm171.28 15.824v15.113h136.08v-15.113zm0 60.457v15.113h136.08v-15.113zm-310.66 173.81c-5.6836 0.55859-6.5781 4.1367-6.8516 7.3203-0.87891 31.812 5.7461 71.348 24.098 102.26 1.7695 3.0742 5.8906 4.5547 9.2148 3.3047 80.988-28.969 171.82 7.6172 272.86 22.906 0.38672 0.10547 0.78125 0.1875 1.1797 0.23438 110.75 0 219.24-69.418 257.27-91.867 0.51953-0.33203 0.99609-0.73438 1.418-1.1797 9.9297-9.7656 10.348-24.043 4.0156-34.008-6.332-9.9648-18.363-16.531-32.367-16.531-0.63672 0-1.2734 0.074219-1.8906 0.23438-54.234 15.242-115.22 37.551-174.82 37.551-56.629 0-89.582-11.062-116-22.199s-47.055-23.145-76.07-23.145c-53.945 4.9102-108.07 10.059-162.07 15.117zm162.07 0c24.766 0 42.801 10.43 70.164 21.961 27.367 11.535 63.289 23.379 121.9 23.379 9.5859-0.75 20.344 1.2109 27.879 5.9023 24.293 17.168 8.1016 28.922-11.34 31.645l-134.66-14.879c-4.1758-1.0625-8.9062 2.207-9.3828 6.4883-0.47656 4.2812 3.4219 8.5117 7.7266 8.3906l136.08 15.113c0.54688 0.074219 1.1055 0.074219 1.6523 0 19.402-0.32422 35.207-9.5508 38.453-25.102 0.68359-12.637-6.0938-23.418-14.828-30.629 47.871-6.7188 94.047-23.066 135.13-34.715 8.543 0.36328 16.219 4.6367 19.609 9.6836 3.2148 5.0586 3.4805 9.6523-1.6523 14.879-39.527 23.391-144.22 88.402-247.35 88.797-98.52-14.156-187.73-48.973-273.57-24.09-13.238-24.852-18.707-56.125-18.898-82.656 50.926-4.5039 102.57-10.16 153.09-14.168z" fill="#018153"/>
</svg>
