<?xml version="1.0" encoding="UTF-8"?>
<svg width="1200pt" height="1200pt" version="1.1" viewBox="0 0 1200 1200" xmlns="http://www.w3.org/2000/svg">
 <path d="m600 1e3c18.398 0 33.332-15 33.332-33.332v-400c0-18.402-14.934-33.336-33.332-33.336s-33.332 14.934-33.332 33.336v400c0 18.332 14.934 33.332 33.332 33.332zm200 0c18.332 0 33.332-15 33.332-33.332v-400c0-18.402-15-33.336-33.332-33.336s-33.332 14.934-33.332 33.336v400c0 18.332 15 33.332 33.332 33.332zm233.33-866.67h-266.67l0.003907-66.664c0-36.801-29.801-66.668-66.668-66.668h-200c-36.867 0-66.668 29.867-66.668 66.668v66.668l-266.66-0.003907c-36.867 0-66.668 29.867-66.668 66.668v200h66.668v666.67c0 73.668 59.734 133.33 133.33 133.33h600c73.602 0 133.33-59.668 133.33-133.33v-666.67h66.668v-200c0-36.801-29.801-66.668-66.668-66.668zm-533.33-33.332c0-18.398 14.934-33.332 33.332-33.332h133.33c18.336 0 33.336 14.934 33.336 33.332v33.332h-200zm466.67 966.67c0 36.867-29.801 66.668-66.668 66.668l-600-0.003907c-36.867 0-66.668-29.801-66.668-66.668v-666.66h733.33zm66.664-733.34h-866.66v-100c0-18.398 14.934-33.332 33.332-33.332h800c18.332 0 33.332 14.934 33.332 33.332zm-633.33 666.67c18.398 0 33.332-15 33.332-33.332v-400c0-18.402-14.934-33.336-33.332-33.336s-33.332 14.934-33.332 33.336v400c0 18.332 14.934 33.332 33.332 33.332z"/>
</svg>
