<?xml version="1.0" encoding="UTF-8"?>
<svg width="1200pt" height="1200pt" version="1.1" viewBox="0 0 1200 1200" xmlns="http://www.w3.org/2000/svg">
 <g fill="#ff59b9">
  <path d="m493.88 553.24c-1.7266 58.531 44.469 107.55 102.98 109.25 1.0547 0.023437 2.1562 0.046875 3.2109 0.046875 27.168 0 52.902-10.207 72.789-28.941 20.652-19.457 32.441-45.789 33.254-74.129 0.81641-27.027-8.5781-53.047-26.402-73.27-19.359-22.02-47.297-35.148-76.574-35.984-28.129-0.67188-55.395 9.4414-76 28.871-20.648 19.453-32.438 45.785-33.254 74.152zm60.188-45.594c12.508-11.789 28.75-18.207 45.906-18.207 0.67188 0 1.3398 0 2.0117 0.023438 18.734 0.52734 35.891 8.5781 48.301 22.668 11.211 12.746 17.105 29.16 16.629 46.191-0.52734 17.875-8 34.453-20.988 46.719-12.988 12.289-29.711 19.168-47.918 18.207-17.875-0.52734-34.453-7.9531-46.719-20.965-12.219-13.012-18.688-30.02-18.207-47.895 0.52344-17.871 7.9961-34.473 20.984-46.742z"/>
  <path d="m580.53 554.05c2.5234 2.0508 7.2734 5.2852 14.293 9.6602 4.1992 2.6406 6.6641 5.0469 7.3945 7.2578 0.71094 2.207 1.0625 5.9141 1.0625 11.043 0 2.0508-0.375 3.625-1.1211 4.6562-0.76953 1.0234-1.9102 1.5742-3.4727 1.5742-1.8125 0-2.9766-0.74609-3.4492-2.2461-0.47266-1.5-0.71094-5.3633-0.71094-11.516v-5.6406h-22.949v4.4961c0 10.211 2.2891 17.391 6.8828 21.492 4.5742 4.1406 9.9375 6.5078 16.07 7.0977v8.9141h10.59v-8.6367c7.8672-1.1016 13.785-3.9805 17.723-8.6328 3.9453-4.6562 5.9141-11.082 5.9141-19.285 0-5.0859-0.73047-9.3867-2.1875-12.816-1.4609-3.3945-3.2539-6.0742-5.3867-7.9258-2.1094-1.8945-6.0898-4.5742-11.93-8.1211-6.8594-4.1406-10.984-6.9414-12.383-8.3984-1.4414-1.4219-2.168-3.9453-2.168-7.5703 0-2.1289 0.35547-3.7461 1.0469-4.8516 0.71094-1.0625 1.7539-1.6133 3.1562-1.6133 1.7539 0 2.8789 0.62891 3.4102 1.8945 0.53125 1.2227 0.80859 3.9023 0.80859 7.9258v3.8242h22.949c0.16016-1.9297 0.23828-3.3906 0.23828-4.3359 0-6.7812-1.7734-12.066-5.2812-15.93-3.5312-3.8281-8.8359-6.2305-15.91-7.1406v-7.332h-10.59v7.332c-7.7695 0.90625-13.586 3.3125-17.469 7.2188-3.8828 3.9023-5.8164 9.3047-5.8164 16.168 0 4.7305 0.90625 8.9492 2.7383 12.699 1.8516 3.7695 4.0234 6.6484 6.5469 8.7383z"/>
  <path d="m1126.6 900.34h-6.2773l0.003906-529.57c0-57.098-46.48-103.53-103.55-103.53h-184.39v-168.96c0-24.461-19.934-44.371-44.371-44.371h-376.02c-24.438 0-44.371 19.91-44.371 44.371v168.96h-184.54c-57.07 0-103.55 46.434-103.55 103.53v529.57h-6.1328c-10.832 0-19.648 8.793-19.648 19.621v113.02c0 62.367 50.746 113.11 113.14 113.11h866.23c62.391 0 113.14-50.746 113.14-113.11v-113.02c0-10.828-8.8164-19.621-19.648-19.621zm-714.61-175.53h376.02c24.438 0 44.371-19.91 44.371-44.398v-261.56h78.875c23.816 0 43.176 15.406 43.176 34.332v335.14l-709 0.003907v-335.14c0-18.617 19.742-34.332 43.129-34.332h79.066v261.57c-0.003906 24.48 19.934 44.391 44.371 44.391zm-5.0781-626.54c0-2.8281 2.2539-5.1289 5.0781-5.1289h376.02c2.8281 0 5.0781 2.3008 5.0781 5.1289v582.14c0 2.8281-2.2539 5.1523-5.0781 5.1523h-376.02c-2.8281 0-5.0781-2.3242-5.0781-5.1523zm-288.09 272.49c0-35.434 28.801-64.281 64.258-64.281h184.54v73.125h-79.066c-45.426 0-82.422 33.016-82.422 73.578v354.77c0 10.832 8.8164 19.621 19.648 19.621h748.3c10.832 0 19.648-8.793 19.648-19.621v-354.77c0-40.562-36.992-73.578-82.469-73.578l-78.871-0.003906v-73.125h184.39c35.461 0 64.258 28.848 64.258 64.281v529.57h-962.21zm988.13 662.21c0 40.73-33.113 73.867-73.844 73.867h-866.23c-40.73 0-73.844-33.137-73.844-73.867v-93.395h1013.9z"/>
  <path d="m463.07 126.45h109.67v109.67h-109.67z"/>
  <path d="m648.42 229.96c3.4961 4.3867 8.6758 7.0938 14.281 7.4023 0.33594 0.023438 0.71875 0.023438 1.1016 0.023438 5.1758 0 10.207-2.0586 13.895-5.75l72.934-72.957c7.668-7.668 7.668-20.078 0-27.746-7.668-7.668-20.125-7.668-27.793 0l-57.359 57.383-13.895-17.516c-6.8047-8.5781-19.168-9.8945-27.602-3.1875-8.4805 6.7578-9.8711 19.094-3.1602 27.578z"/>
  <path d="m463.16 302.41h109.67v109.67h-109.67z"/>
  <path d="m722.93 306.89-57.359 57.383-13.895-17.516c-6.8047-8.5508-19.121-9.8477-27.602-3.1875-8.4805 6.7578-9.8711 19.094-3.1602 27.578l27.602 34.766c3.4961 4.3867 8.6758 7.0938 14.281 7.4023 0.33594 0.023438 0.71875 0.023438 1.1016 0.023438 5.1758 0 10.207-2.0586 13.895-5.75l72.934-72.957c7.668-7.668 7.668-20.078 0-27.746-7.668-7.6641-20.129-7.6641-27.797 0.003906z"/>
  <path d="m225.78 1042.8h748.3c10.832 0 19.648-8.793 19.648-19.621 0-10.832-8.8164-19.621-19.648-19.621h-748.3c-10.832 0-19.648 8.793-19.648 19.621 0.003906 10.828 8.8203 19.621 19.648 19.621z"/>
 </g>
</svg>
