<?xml version="1.0" encoding="UTF-8"?>
<svg width="1200pt" height="1200pt" version="1.1" viewBox="0 0 1200 1200" xmlns="http://www.w3.org/2000/svg">
 <g fill="#c362dd">
  <path d="m1092.9 755.12h-62.5v-25h62.5c21.781 0 42.668-8.6523 58.07-24.055 15.402-15.402 24.055-36.289 24.055-58.07v-123.5c0-5.2031-1.8672-10.234-5.2617-14.18-3.3945-3.9453-8.0938-6.543-13.238-7.3203l-75-12.5-225.38-98.875c-6.6758-3.0273-13.918-4.6016-21.25-4.625h-201.62c-1.875 0-133.25-5-223.38 64l-1.25 0.875-106.75 63.875-202.75 52.5c-22.613 5.7188-42.469 19.266-56.039 38.238-13.574 18.969-19.98 42.137-18.086 65.387 1.5078 18.461 4.0547 36.824 7.625 55 0.41797 1.9336 2.1484 3.293 4.125 3.25h125v25h-124.25c-6.8203 0.097656-13.461-2.1992-18.758-6.4922-5.3008-4.2969-8.9258-10.316-10.242-17.008-3.8281-18.879-6.6641-37.949-8.5-57.125-2.3398-29.074 5.6562-58.039 22.578-81.797 16.918-23.758 41.68-40.785 69.922-48.078l201.38-52.625 101.25-61.125c96.875-74.375 233-68.875 238.75-68.875h201c10.766 0.003906 21.41 2.2617 31.25 6.625l224.38 98.375 70 11c11.062 1.7344 21.133 7.3828 28.383 15.918 7.2461 8.5352 11.191 19.387 11.117 30.582v123.75c-0.066406 28.367-11.383 55.551-31.465 75.586-20.082 20.039-47.293 31.289-75.66 31.289z"/>
  <path d="m355.5 730.12h480.62v25h-480.62z"/>
  <path d="m631.45 517.19 18.027-144.12 24.809 3.1016-18.027 144.12z"/>
  <path d="m393.62 541c-25 0-79-3.125-103.75-28.625l17.875-17.375c19.5 20 76.25 21.875 96.375 20.75l469.5-21.75c3.3516-0.20703 6.5469-1.4766 9.125-3.625l83.25-70.25 16.125 19.125-83.25 70.25c-6.8008 5.6914-15.266 9.0273-24.125 9.5l-469.38 21.75z"/>
  <path d="m933 838c-29.305 0-57.414-11.641-78.137-32.363-20.723-20.723-32.363-48.832-32.363-78.137s11.641-57.414 32.363-78.137c20.723-20.723 48.832-32.363 78.137-32.363s57.414 11.641 78.137 32.363c20.723 20.723 32.363 48.832 32.363 78.137-0.066406 29.285-11.73 57.355-32.438 78.062s-48.777 32.371-78.062 32.438zm0-196c-22.676 0-44.422 9.0078-60.457 25.043-16.035 16.035-25.043 37.781-25.043 60.457s9.0078 44.422 25.043 60.457c16.035 16.035 37.781 25.043 60.457 25.043s44.422-9.0078 60.457-25.043c16.035-16.035 25.043-37.781 25.043-60.457-0.03125-22.664-9.0508-44.395-25.078-60.422s-37.758-25.047-60.422-25.078z"/>
  <path d="m933 792.12c-17.141 0-33.578-6.8086-45.695-18.93-12.121-12.117-18.93-28.555-18.93-45.695s6.8086-33.578 18.93-45.695c12.117-12.121 28.555-18.93 45.695-18.93s33.578 6.8086 45.695 18.93c12.121 12.117 18.93 28.555 18.93 45.695s-6.8086 33.578-18.93 45.695c-12.117 12.121-28.555 18.93-45.695 18.93zm0-104.25c-10.508 0-20.59 4.1758-28.02 11.605-7.4297 7.4297-11.605 17.512-11.605 28.02s4.1758 20.59 11.605 28.02c7.4297 7.4297 17.512 11.605 28.02 11.605s20.59-4.1758 28.02-11.605c7.4297-7.4297 11.605-17.512 11.605-28.02s-4.1758-20.59-11.605-28.02c-7.4297-7.4297-17.512-11.605-28.02-11.605z"/>
  <path d="m258.62 792.12c-17.141 0-33.578-6.8086-45.695-18.93-12.121-12.117-18.93-28.555-18.93-45.695s6.8086-33.578 18.93-45.695c12.117-12.121 28.555-18.93 45.695-18.93s33.578 6.8086 45.695 18.93c12.121 12.117 18.93 28.555 18.93 45.695s-6.8086 33.578-18.93 45.695c-12.117 12.121-28.555 18.93-45.695 18.93zm0-104.25c-10.508 0-20.59 4.1758-28.02 11.605-7.4297 7.4297-11.605 17.512-11.605 28.02s4.1758 20.59 11.605 28.02c7.4297 7.4297 17.512 11.605 28.02 11.605s20.59-4.1758 28.02-11.605c7.4297-7.4297 11.605-17.512 11.605-28.02s-4.1758-20.59-11.605-28.02c-7.4297-7.4297-17.512-11.605-28.02-11.605z"/>
  <path d="m258.62 838c-29.305 0-57.414-11.641-78.137-32.363-20.723-20.723-32.363-48.832-32.363-78.137s11.641-57.414 32.363-78.137c20.723-20.723 48.832-32.363 78.137-32.363s57.414 11.641 78.137 32.363c20.723 20.723 32.363 48.832 32.363 78.137-0.03125 29.297-11.688 57.383-32.402 78.098s-48.801 32.371-78.098 32.402zm0-196c-22.676 0-44.422 9.0078-60.457 25.043-16.035 16.035-25.043 37.781-25.043 60.457s9.0078 44.422 25.043 60.457c16.035 16.035 37.781 25.043 60.457 25.043s44.422-9.0078 60.457-25.043c16.035-16.035 25.043-37.781 25.043-60.457s-9.0078-44.422-25.043-60.457c-16.035-16.035-37.781-25.043-60.457-25.043z"/>
  <path d="m532.62 619.88h-47.375c-6.9023 0-12.5-5.5977-12.5-12.5s5.5977-12.5 12.5-12.5h47.375c6.9023 0 12.5 5.5977 12.5 12.5s-5.5977 12.5-12.5 12.5z"/>
  <path d="m739.25 619.88h-47.5c-6.9023 0-12.5-5.5977-12.5-12.5s5.5977-12.5 12.5-12.5h47.5c6.9023 0 12.5 5.5977 12.5 12.5s-5.5977 12.5-12.5 12.5z"/>
  <path d="m14.625 675.62-4.125-25 36.625-6.25c3.8086-0.61328 7.2539-2.6094 9.6758-5.6094 2.4258-3 3.6523-6.7891 3.4492-10.641l-3.375-61 25-1.375 3.25 61c0.66016 10.043-2.4453 19.973-8.707 27.855-6.2617 7.8789-15.234 13.145-25.168 14.77z"/>
  <path d="m1200 647.5h-54.875c-7.2617 0-14.223-2.8828-19.355-8.0195-5.1367-5.1328-8.0195-12.094-8.0195-19.355v-62.5c0-7.2617 2.8828-14.223 8.0195-19.355 5.1328-5.1367 12.094-8.0195 19.355-8.0195h54.875zm-54.875-92.25c-1.2852 0.0625-2.3125 1.0898-2.375 2.375v62.5c0.0625 1.2852 1.0898 2.3125 2.375 2.375h29.875v-67.25z"/>
 </g>
</svg>
