<?xml version="1.0" encoding="UTF-8"?>
<svg width="1200pt" height="1200pt" version="1.1" viewBox="0 0 1200 1200" xmlns="http://www.w3.org/2000/svg">
 <g fill="#ff001b">
  <path d="m226.89 59.406c0-32.645 26.762-59.406 59.406-59.406h627.39c32.645 0 59.406 26.762 59.406 59.406v1081.2c0 32.645-26.762 59.406-59.406 59.406h-627.39c-32.645 0-59.406-26.762-59.406-59.406zm733.4 975.76h-720.6v105.43c0 25.609 20.992 46.602 46.602 46.602h627.39c25.609 0 46.602-20.992 46.602-46.602v-105.43zm-720.6-12.805h720.6v-844.6h-720.6zm0-857.52h720.6v-105.43c0-25.609-20.992-46.602-46.602-46.602h-627.39c-25.609 0-46.602 20.992-46.602 46.602v105.43z"/>
  <path d="m692.11 69.902c23.879 0 23.762 37.949 0 37.949h-184.21c-23.648 0-24.109-37.949 0-37.949zm0 12.805h-184.21c-7.6133 0-6 12.344 0 12.344h184.21c7.1523 0 6.9219-12.344 0-12.344z"/>
  <path d="m581.02 1092.1h37.949c23.879 0 23.879 37.949 0 37.949h-37.949c-23.992 0-23.762-37.949 0-37.949zm37.949 12.918h-37.949c-7.1523 0-6.9219 12.227 0 12.227h37.949c6.9219 0 7.1523-12.227 0-12.227z"/>
 </g>
</svg>
