<?xml version="1.0" encoding="UTF-8"?>
<svg width="1200pt" height="1200pt" version="1.1" viewBox="0 0 1200 1200" xmlns="http://www.w3.org/2000/svg">
 <g fill="#00bac2">
  <path d="m1109.1 374.6c-42.742-90.805-155.13-185.52-251.84-254.9-75.602-52.059-107.36-75.445-126.12-79.945 0 0.003906-202.15 0.003906-202.15 0.003906-3.25 0.49609-6.5703 1.3633-9.5781 2.6289-93.719 53.641-324.07 220.67-368.37 332.18-74.562 159.38-88.371 506.85-54.586 622.84v88.945c0 22.559 18.348 40.906 40.906 40.906h73.387c22.41 0 40.777-18.246 40.906-40.703l0.45703-90.785c1.1602-10.277 11.25-97.988 25.273-190.92l14.953 216.14c2.0508 29.352 26.715 52.352 56.121 52.352 138.66 0.11328 423.61-0.082031 563.2 0 29.441 0 54.09-23.008 56.121-52.367 0 0 14.934-216.3 14.934-216.3 14.043 92.992 24.152 180.81 25.312 191.09l0.45703 90.773c0.10938 22.449 18.457 40.715 40.906 40.715h73.371c22.559 0 40.906-18.348 40.906-40.906v-88.945c33.781-115.95 19.996-463.41-54.566-622.8zm-171.77 216.75c3.9102 8.4922 10.242 26.223 18.281 61.945l-18.719 270.55h-310.68v-563.71c0.10156-10.656 12.281-9.7539 18.84-14.73 73.277-35.34 171.32-146.11 204.34-184.96 37.75 27.648 71.84 54.859 101.26 81.109-57.789 84.383-57.203 256.29-13.332 349.8zm-118.47-452.92c-26.863 31.344-90.977 103.25-148.59 146.77l70.758-198.57c17.469 10.988 45.367 29.023 77.836 51.809zm-188.79 147.85-74.488-209.02h148.96zm-110.97-199.65 70.766 198.57c-57.621-43.516-121.73-115.42-148.6-146.76 32.48-22.781 60.363-40.816 77.836-51.805zm-108.38 73.82c30.242 35.578 114.97 131.27 185.38 174.33-4.6484 7.3945-7.3789 16.109-7.3789 25.359v563.71h-265.5l-18.746-270.36c8.1133-35.969 14.438-53.672 18.285-62.012 43.926-93.633 44.512-265.54-13.293-349.91 29.418-26.25 63.512-53.461 101.26-81.113zm-225.7 229.98c17.195-36.934 49.621-78.297 96.535-123.13 46.16 73.297 45.008 227.79 7.1953 308.35-39.766 102.51-62.273 332.45-72.09 400.27h-87.031c-27.828-118.22-12.582-440.2 55.395-585.49zm25.727 699.34h-73.387c-1.8867 0-3.4062-1.5273-3.4062-3.4062v-72.941h80.562l-0.36328 72.941c-0.019531 1.875-1.5391 3.4062-3.4062 3.4062zm119.02-71.367-3.957-57.047h262.9v74.496h-240.25c-9.7969 0-18.02-7.6719-18.695-17.449zm581.89 17.449h-285.44v-74.496h308.09l-3.9453 57.047c-0.66016 9.7852-8.8789 17.449-18.695 17.449zm81.172-388.09c-7.2891-32.75-14.504-57-21.496-72.207-37.758-80.465-38.91-234.94 7.2344-308.25 46.91 44.832 79.359 86.195 96.551 123.16 67.973 145.3 83.203 467.25 55.375 585.45h-87.02c-6.3359-53.438-27.363-223.42-50.645-328.16zm129.93 442.01h-73.371c-1.8672 0-3.4062-1.5195-3.4062-3.3867l-0.36328-72.957h80.547v72.941c0 1.875-1.5195 3.4062-3.4062 3.4062z"/>
  <path d="m786.46 641.37c-7.8008-23.273-42.809-12.34-35.742 11.336 1.9219 6.0703 47.844 149.38 111.55 209.05 3.625 3.3867 8.2227 5.0625 12.816 5.0625 16.293 0.54688 25.375-21.473 12.816-32.438-56.543-52.965-101-191.62-101.44-193.01z"/>
  <path d="m385 866.82c4.5977 0 9.2109-1.6758 12.816-5.0625 63.684-59.676 109.62-202.98 111.55-209.05 7.0586-23.551-27.922-34.762-35.742-11.332-0.4375 1.3906-44.824 139.96-101.44 193.01-12.527 10.914-3.5078 33.047 12.816 32.438z"/>
  <path d="m679.19 378.67c-24.648 0.41797-24.645 36.562 0 36.977 24.648-0.41797 24.641-36.562 0-36.977z"/>
  <path d="m679.19 503.61c-24.648 0.41797-24.645 36.562 0 36.977 24.648-0.41797 24.641-36.562 0-36.977z"/>
  <path d="m678.8 658c24.648-0.41797 24.645-36.562 0-36.977-24.648 0.41797-24.641 36.562 0 36.977z"/>
  <path d="m679.19 737.04c-24.648 0.41797-24.645 36.562 0 36.977 24.645-0.41797 24.645-36.562 0-36.977z"/>
  <path d="m676.5 849.23c-24.648 0.41797-24.645 36.562 0 36.977 24.645-0.41797 24.645-36.562 0-36.977z"/>
  <path d="m679.19 980.75c-24.648 0.41797-24.645 36.566 0 36.977 24.645-0.41797 24.645-36.562 0-36.977z"/>
 </g>
</svg>
