<?xml version="1.0" encoding="UTF-8"?>
<svg width="1200pt" height="1200pt" version="1.1" viewBox="0 0 1200 1200" xmlns="http://www.w3.org/2000/svg">
 <g fill="#018153">
  <path d="m746.25 402.63c-119.27 25.559-181.75 144.83-244.23 238.55-53.957 70.996-127.79 139.15-221.51 139.15v56.797c102.23 5.6797 221.51-102.24 266.95-170.39 34.078-48.277 116.43-190.27 198.79-204.47v76.676l173.23-113.59-173.23-99.395z"/>
  <path d="m499.18 555.98 31.238-45.438c-53.957-68.156-159.03-153.35-249.91-147.67v56.793c93.715 0.003907 164.71 65.324 218.67 136.32z"/>
  <path d="m746.25 740.57c-42.598-8.5195-88.035-53.957-122.11-99.395l-34.078 48.277c38.238 52.727 93.348 90.801 156.19 107.91v76.676l173.23-99.395-173.23-113.59z"/>
  <path d="m600.03 0c-159.13-0.0078125-311.74 63.199-424.27 175.71-112.53 112.52-175.75 265.13-175.76 424.26-0.0039062 159.13 63.203 311.74 175.72 424.27 112.52 112.53 265.12 175.75 424.25 175.76s311.74-63.199 424.27-175.71c112.53-112.52 175.75-265.12 175.76-424.25-0.17969-159.07-63.445-311.58-175.92-424.07-112.48-112.48-264.98-175.77-424.05-175.96zm0 1159.9c-110.73 0-218.96-32.832-311.03-94.348-92.066-61.516-163.82-148.95-206.19-251.25-42.375-102.3-53.461-214.86-31.859-323.46 21.602-108.6 74.922-208.35 153.22-286.64 78.293-78.293 178.05-131.61 286.64-153.21 108.6-21.602 221.16-10.516 323.46 31.859 102.3 42.371 189.73 114.13 251.25 206.19 61.516 92.066 94.348 200.3 94.348 311.03-0.17188 148.42-59.207 290.72-164.16 395.67s-247.25 163.99-395.68 164.16z"/>
 </g>
</svg>
