<?xml version="1.0" encoding="UTF-8"?>
<svg width="1200pt" height="1200pt" version="1.1" viewBox="0 0 1200 1200" xmlns="http://www.w3.org/2000/svg">
 <g fill="#018153">
  <path d="m935.55 755.48h-481.9c-5.043 0-9.1289-4.0859-9.1289-9.1289v-0.36719c0-2.6328 0.16016-65.359 13.898-144.61 17.547-101.17 48.191-179.46 91.082-232.7 38.789-48.32 87.359-74.887 144.36-78.945 0.41797-0.027344 0.83984-0.027344 1.2578-0.003907 61.559 4.1172 113.08 31.227 153.12 80.574 31.543 38.867 55.938 91.527 72.508 156.52 27.973 109.74 23.969 218.81 23.926 219.9-0.20312 4.8945-4.2266 8.7617-9.125 8.7617zm-472.61-18.258h463.66c0.29297-27.707-0.78906-116.82-23.641-206.24-35.992-140.84-106.12-215.86-208.44-223-51.453 3.832-95.453 28.098-130.8 72.129-88.938 110.4-99.531 312.68-100.79 357.11z"/>
  <path d="m453.83 755.11h-173.2c-4.8984 0-8.9258-3.8672-9.1211-8.7617-0.16016-3.9297-3.6016-97.414 19.219-194.47 30.836-131.14 95.465-203.93 186.9-210.48 0.42188-0.023438 0.83984-0.03125 1.2578-0.003907 30.305 2.0078 58.098 10.48 82.602 25.184 2.2656 1.3555 3.8281 3.6289 4.293 6.2266 0.46094 2.5977-0.22266 5.2695-1.8789 7.3281-99.789 123.86-100.94 363.45-100.94 365.85 0 5.043-4.0898 9.1289-9.1289 9.1289zm-164.25-18.258h155.27c0.51562-20.445 2.8867-72.793 13.758-135.48 16.629-95.891 45.027-171.23 84.465-224.16-19.562-10.031-41.293-15.93-64.758-17.562-83.438 6.2891-140.54 72.254-169.73 196.08-18.367 77.898-19.277 155.54-19.004 181.12z"/>
  <path d="m591.36 1048c-95.551 0-177.19-15.672-242.64-46.582-52.82-24.941-95.266-59.781-126.16-103.54-52.684-74.641-53.289-148.42-53.289-151.53 0-5.043 4.0859-9.1289 9.1289-9.1289h843.18c2.5156 0 4.918 1.0352 6.6445 2.8672 1.7227 1.8281 2.6172 4.2891 2.4688 6.8008-0.18359 3.1016-5.1406 76.773-62.125 151.27-33.391 43.656-77.797 78.414-131.97 103.3-67.215 30.887-149.73 46.547-245.25 46.547zm-403.27-292.52c1.9375 21.449 10.676 77.422 49.957 132.66 65.879 92.641 188.05 141.61 353.32 141.61 165.41 0 290.63-49.066 362.12-141.89 42.285-54.902 54.5-110.5 57.828-132.37z"/>
  <path d="m402.16 824.25h-206.66c-5.043 0-9.1289-4.0859-9.1289-9.1289 0-5.043 4.0859-9.1289 9.1289-9.1289h206.66c5.043 0 9.1289 4.0859 9.1289 9.1289-0.003906 5.043-4.0898 9.1289-9.1328 9.1289z"/>
  <path d="m341.12 927.57h-86.047c-5.043 0-9.1289-4.0859-9.1289-9.1289 0-5.043 4.0859-9.1289 9.1289-9.1289h86.047c5.043 0 9.1289 4.0859 9.1289 9.1289 0 5.043-4.0898 9.1289-9.1289 9.1289z"/>
  <path d="m427.17 927.57h-34.383c-5.043 0-9.1289-4.0859-9.1289-9.1289 0-5.043 4.0859-9.1289 9.1289-9.1289h34.383c5.043 0 9.1289 4.0859 9.1289 9.1289-0.003906 5.043-4.0898 9.1289-9.1289 9.1289z"/>
  <path d="m979.12 875.91h-154.81c-5.043 0-9.1289-4.0859-9.1289-9.1289s4.0859-9.1289 9.1289-9.1289h154.81c5.043 0 9.1289 4.0859 9.1289 9.1289s-4.0898 9.1289-9.1289 9.1289z"/>
  <path d="m866.78 910.29h-68.949c-5.043 0-9.1289-4.0859-9.1289-9.1289 0-5.043 4.0859-9.1289 9.1289-9.1289h68.949c5.043 0 9.1289 4.0859 9.1289 9.1289 0 5.0391-4.0898 9.1289-9.1289 9.1289z"/>
  <path d="m832.4 307.96c-2.3359 0-4.6719-0.89062-6.4531-2.6758-3.5664-3.5625-3.5664-9.3438 0-12.91l60.121-60.121c3.5625-3.5664 9.3477-3.5664 12.91 0 3.5664 3.5625 3.5664 9.3438 0 12.91l-60.121 60.121c-1.7812 1.7852-4.1211 2.6758-6.457 2.6758z"/>
  <path d="m694.69 256.3c-5.043 0-9.1289-4.0859-9.1289-9.1289v-86.047c0-5.043 4.0859-9.1289 9.1289-9.1289s9.1289 4.0859 9.1289 9.1289v86.047c0 5.043-4.0859 9.1289-9.1289 9.1289z"/>
  <path d="m694.69 631.56c-49.844 0-90.395-40.551-90.395-90.395s40.551-90.395 90.395-90.395 90.395 40.551 90.395 90.395c0 5.043-4.0859 9.1289-9.1289 9.1289s-9.1289-4.0859-9.1289-9.1289c0-39.777-32.359-72.137-72.137-72.137s-72.141 32.359-72.141 72.137c0 39.777 32.363 72.137 72.141 72.137 5.043 0 9.1289 4.0859 9.1289 9.1289 0 5.043-4.0859 9.1289-9.1289 9.1289z"/>
  <path d="m764 755.48c-1.6562 0-3.332-0.45312-4.8398-1.3984-4.2695-2.6758-5.5625-8.3125-2.8828-12.582 6.9062-11.016 10.555-24.086 10.555-37.809 0-39.777-32.359-72.137-72.137-72.137-5.043 0-9.1289-4.0859-9.1289-9.1289 0-5.043 4.0859-9.1289 9.1289-9.1289 49.844 0 90.395 40.551 90.395 90.395 0 17.152-4.6133 33.578-13.344 47.508-1.7344 2.7617-4.707 4.2812-7.7461 4.2812z"/>
  <path d="m694.69 469.03c-5.043 0-9.1289-4.0859-9.1289-9.1289v-40.637c0-5.043 4.0859-9.1289 9.1289-9.1289s9.1289 4.0859 9.1289 9.1289v40.637c0 5.043-4.0859 9.1289-9.1289 9.1289z"/>
  <path d="m565.62 307.96c-2.332 0-4.6641-0.88672-6.4453-2.6641l-60.309-60.121c-3.5703-3.5586-3.5781-9.3398-0.019531-12.91 3.5586-3.5664 9.3398-3.5781 12.91-0.019531l60.309 60.121c3.5703 3.5586 3.5781 9.3398 0.019531 12.91-1.7812 1.7891-4.125 2.6836-6.4648 2.6836z"/>
  <path d="m344.43 535.04c-0.95703 0-1.9297-0.15234-2.8867-0.46875-4.7812-1.5977-7.3672-6.7656-5.7734-11.547 34.145-102.44 86.309-120.88 88.512-121.61 4.7734-1.5859 9.9531 0.98828 11.547 5.7734 1.5859 4.7578-0.96484 9.8984-5.6992 11.523-0.83203 0.30469-46.246 17.703-77.039 110.09-1.2734 3.8242-4.8359 6.2422-8.6602 6.2422z"/>
 </g>
</svg>
