<?xml version="1.0" encoding="UTF-8"?>
<svg width="1200pt" height="1200pt" version="1.1" viewBox="0 0 1200 1200" xmlns="http://www.w3.org/2000/svg">
 <g fill="#ff814a">
  <path d="m979.19 451.93h-115.18v-15.938c0-21.086-17.16-38.242-38.242-38.242h-92.641c-4.1523-85.547-60.445-154-130.05-156.82-0.55078-0.058594-1.1055-0.097656-1.668-0.097656h-2.8203c-0.5625 0-1.1172 0.023437-1.668 0.097656-69.445 2.8203-125.64 70.957-130.01 156.82h-92.688c-21.086 0-38.242 17.16-38.242 38.242v15.938h-115.18c-10.945 0-20.578 4.6211-26.449 12.672-5.8555 8.0508-7.2852 18.648-3.9102 29.051l136.21 421.16c2.1719 6.707 6.2266 12.863 11.41 17.988 5.0273 15.254 19.246 26.352 36.156 26.352h451.55c16.906 0 31.117-11.102 36.156-26.352 5.1836-5.125 9.2383-11.27 11.41-17.988l136.21-421.16c3.3711-10.414 1.9453-21-3.9102-29.051-5.8672-8.0547-15.504-12.672-26.449-12.672zm-270.79 172.96c0 14.473-11.125 34.754-18.012 42.574-7.043-7.8477-17.652-28.488-17.652-42.574 0-8.6523 0.85156-33.086 9.8516-42.227-2.1484 11.242-4.4648 22.5-7.0312 33.574-1.8711 8.0625 3.1562 16.129 11.23 18 1.1406 0.26562 2.2812 0.39453 3.3945 0.39453 6.8281 0 12.996-4.6914 14.605-11.617 0.9375-4.0312 1.7891-8.1016 2.6758-12.168 0.60156 4.8164 0.9375 9.6406 0.9375 14.043zm-216.34-16.246c1.0195 4.8008 2.0508 9.6016 3.1562 14.375 1.8711 8.0625 9.9375 13.066 18 11.23 8.0742-1.8711 13.094-9.9375 11.23-18-2.375-10.262-4.5234-20.676-6.5391-31.078 6.0352 8.9531 8.9023 26.219 8.9023 39.73 0 14.473-11.137 34.754-18.012 42.562-7.043-7.8594-17.641-28.488-17.641-42.562-0.007812-3.5156 0.13672-9.6328 0.90234-16.258zm-9.3594-50.016c-11.473 9.6484-21.551 28.738-21.551 66.266 0 27.457 23.629 74.762 47.82 74.762 23.723 0 47.832-47.965 47.832-74.762 0-25.547-6.7422-54.156-24.133-67.738h133.46c-12.215 9.1211-23.41 28.199-23.41 67.738 0 27.457 23.641 74.762 47.832 74.762 23.723 0 47.82-47.965 47.82-74.762 0-24.109-5.9648-50.988-21.238-65.352 0.13281-0.79297 0.25391-1.5859 0.38281-2.3867h116.47v358.89c-1.8125 0.75781-3.6367 1.2617-5.3398 1.2617l-457.32-0.003906c-1.7031 0-3.5273-0.50391-5.3398-1.2617v-358.88h116.47c0.082031 0.49219 0.15625 0.97266 0.23828 1.4648zm25.598-31.465c-5.8203-41.387-9-78-10.547-99.406h204.5c-1.5586 21.625-4.7539 58.152-10.535 99.406zm325.71-91.176v91.176h-111.96c5.7461-41.746 8.8086-78.07 10.285-99.406h93.434c4.4727-0.011719 8.2422 3.7656 8.2422 8.2305zm-234.01-165.14c54.781 0.94922 99.469 56.988 103.19 126.9l-206.34 0.003906c3.9492-70.227 48.527-125.96 103.15-126.9zm-225.77 156.9h93.422c1.4648 21.109 4.5234 57.48 10.297 99.406h-111.96v-91.176c0-4.4531 3.7695-8.2305 8.2422-8.2305zm-155.23 56.676c-0.42188-1.2969-0.35938-2.0742-0.45703-2.0742 0.15625-0.10938 0.875-0.42188 2.2695-0.42188h115.18v364.21zm762 0-116.99 361.71v-364.21h115.18c1.4297 0 2.1484 0.34766 2.1133 0.19141 0.046875 0.17969 0.13281 0.96094-0.30078 2.3047z"/>
  <path d="m481.33 779.34h237.32c8.2812 0 15-6.7188 15-15s-6.7188-15-15-15h-237.32c-8.2812 0-15 6.7188-15 15s6.7188 15 15 15z"/>
  <path d="m653.53 451.93h-107.06c-8.2812 0-15 6.7188-15 15s6.7188 15 15 15h107.06c8.2812 0 15-6.7188 15-15s-6.7188-15-15-15z"/>
 </g>
</svg>
