<?xml version="1.0" encoding="UTF-8"?>
<svg width="1200pt" height="1200pt" version="1.1" viewBox="0 0 1200 1200" xmlns="http://www.w3.org/2000/svg">
 <path d="m600 24.953c-316.97 0-575.05 258.08-575.05 575.05s258.08 575.05 575.05 575.05c316.97 0 575.05-258.08 575.05-575.05 0-158.48-64.461-302.55-168.46-406.54-104-104-248.11-168.51-406.59-168.51zm0 100.05c131.46 0 249.88 53.145 335.89 139.16s139.16 204.38 139.16 335.84c0 262.93-212.12 475.05-475.05 475.05-262.93 0-475-212.12-475-475.05s212.07-475 475-475zm-74.805 71.438c-95.793-1.7852-184.67 74.906-197.71 169.68-7.1797 29.41-1.3711 68.711 32.129 78.465 33.172 12.312 70.168-18.633 65.676-53.32 0.97266-54.406 52.711-99.391 106.45-94.824 51.238 0.34766 102.63-0.73828 153.76 0.53906 57.391 3.7617 101 64.043 87.742 119.78-8.4336 48.898-57.52 83.371-105.71 80.078-77.695 2.3711-144.93 73.582-142.38 151.37 0.56641 38.406-1.1523 76.918 0.94531 115.23 5.6406 38.344 59.266 54.297 84.914 25.242 21.023-21.469 12.309-52.852 14.16-79.734 0.98828-25.801-2.2617-52.02 2.1992-77.492 9.0312-35.5 48.77-35.906 78.172-37.305 94.773-13.016 171.49-101.91 169.73-197.71 1.7617-95.793-74.953-184.69-169.73-197.71-62.629-3.9258-118.24-2.2969-180.32-2.2969zm49.953 707.32c-27.613 0-50 22.387-50 50s22.387 50 50 50c27.613 0 50-22.387 50-50 0-13.809-5.6016-26.305-14.648-35.352s-21.543-14.648-35.352-14.648z"/>
</svg>
