<?xml version="1.0" encoding="UTF-8"?>
<svg width="1200pt" height="1200pt" version="1.1" viewBox="0 0 1200 1200" xmlns="http://www.w3.org/2000/svg">
 <g fill="#00bac2">
  <path d="m599.4 524.48c-9.9297 0.15234-19.398 4.2422-26.316 11.371-6.9219 7.125-10.734 16.707-10.598 26.641v262.5c-0.14062 10.039 3.7461 19.715 10.797 26.863 7.0469 7.1484 16.664 11.172 26.703 11.172s19.66-4.0234 26.707-11.172c7.0469-7.1484 10.938-16.824 10.793-26.863v-262.5c0.14062-10.137-3.8281-19.898-11.004-27.059-7.1758-7.1602-16.945-11.113-27.078-10.953z"/>
  <path d="m637.5 375c0 20.711-16.789 37.5-37.5 37.5s-37.5-16.789-37.5-37.5 16.789-37.5 37.5-37.5 37.5 16.789 37.5 37.5" fill-rule="evenodd"/>
  <path d="m600 75c-289.5 0-525 235.5-525 525s235.5 525 525 525 525-235.5 525-525-235.5-525-525-525zm0 75c248.97 0 450 201.03 450 450s-201.03 450-450 450-450-201.03-450-450 201.03-450 450-450z"/>
 </g>
</svg>
