<?xml version="1.0" encoding="UTF-8"?>
<svg width="1200pt" height="1200pt" version="1.1" viewBox="0 0 1200 1200" xmlns="http://www.w3.org/2000/svg">
 <g fill="#70d258">
  <path d="m491.86 363.23h-126.88v-126.88c0-10.355-8.3867-18.75-18.75-18.75s-18.75 8.3945-18.75 18.75v126.88h-126.88c-10.363 0-18.75 8.3945-18.75 18.75 0 10.355 8.3867 18.75 18.75 18.75h126.88v126.88c0 10.355 8.3867 18.75 18.75 18.75s18.75-8.3945 18.75-18.75v-126.88h126.88c10.363 0 18.75-8.3945 18.75-18.75 0-10.355-8.3867-18.75-18.75-18.75z"/>
  <path d="m999.39 363.23h-291.25c-10.363 0-18.75 8.3945-18.75 18.75 0 10.355 8.3867 18.75 18.75 18.75h291.25c10.363 0 18.75-8.3945 18.75-18.75 0.003906-10.355-8.3828-18.75-18.746-18.75z"/>
  <path d="m462.47 744.44c-7.3242-7.3242-19.188-7.3242-26.516 0l-89.723 89.719-89.723-89.719c-7.3242-7.3242-19.188-7.3242-26.516 0-7.3242 7.3242-7.3242 19.188 0 26.516l89.719 89.719-89.711 89.715c-7.3242 7.3242-7.3242 19.188 0 26.516 3.6641 3.6641 8.4609 5.4922 13.258 5.4922 4.7969 0 9.5938-1.832 13.258-5.4922l89.723-89.719 89.723 89.719c3.6641 3.6641 8.4609 5.4922 13.258 5.4922s9.5938-1.832 13.258-5.4922c7.3242-7.3242 7.3242-19.188 0-26.516l-89.719-89.719 89.719-89.719c7.3164-7.3203 7.3164-19.188-0.007812-26.512z"/>
  <path d="m999.39 772.93h-291.25c-10.363 0-18.75 8.3945-18.75 18.75s8.3867 18.75 18.75 18.75h291.25c10.363 0 18.75-8.3945 18.75-18.75 0.003906-10.355-8.3828-18.75-18.746-18.75z"/>
  <path d="m999.39 910.92h-291.25c-10.363 0-18.75 8.3945-18.75 18.75s8.3867 18.75 18.75 18.75h291.25c10.363 0 18.75-8.3945 18.75-18.75 0.003906-10.355-8.3828-18.75-18.746-18.75z"/>
  <path d="m56.176 1162.6h1087.6c10.363 0 18.75-8.3945 18.75-18.75v-1087.6c0-10.355-8.3867-18.75-18.75-18.75h-1087.6c-10.363 0-18.75 8.3945-18.75 18.75v1087.6c0 10.355 8.3867 18.75 18.75 18.75zm18.75-1087.6h1050.1v1050.1h-1050.1z"/>
 </g>
</svg>
