<?xml version="1.0" encoding="UTF-8"?>
<svg width="1200pt" height="1200pt" version="1.1" viewBox="0 0 1200 1200" xmlns="http://www.w3.org/2000/svg">
 <path d="m440.9 440.9c-97.633 97.629-255.92 97.629-353.55 0-97.633-97.633-97.633-255.92 0-353.55 97.633-97.633 255.92-97.633 353.55 0 97.629 97.633 97.629 255.92 0 353.55zm-70.711-70.711c58.578-58.578 58.578-153.55 0-212.13s-153.55-58.578-212.13 0-58.578 153.55 0 212.13 153.55 58.578 212.13 0zm742.46 742.46c-97.633 97.633-255.92 97.633-353.55 0-97.629-97.633-97.629-255.92 0-353.55 97.633-97.629 255.92-97.629 353.55 0 97.633 97.633 97.633 255.92 0 353.55zm-70.711-70.711c58.578-58.578 58.578-153.55 0-212.13s-153.55-58.578-212.13 0-58.578 153.55 0 212.13 153.55 58.578 212.13 0zm-827.61 17.684c-21.156-17.75-23.922-49.277-6.1406-70.465l707.02-842.6c17.766-21.168 49.164-24.062 70.465-6.1875 21.156 17.75 23.922 49.277 6.1406 70.465l-707.02 842.6c-17.766 21.168-49.164 24.062-70.465 6.1875z" fill="#fb6f55"/>
</svg>
