<?xml version="1.0" encoding="UTF-8"?>
<svg width="1200pt" height="1200pt" version="1.1" viewBox="0 0 1200 1200" xmlns="http://www.w3.org/2000/svg">
 <g fill="#fcc82f">
  <path d="m738.94 699.77c36.375 0 72.773-13.855 100.49-41.574 26.785-26.793 41.535-62.391 41.535-100.24 0-37.863-14.75-73.461-41.535-100.24-26.785-26.793-62.391-41.547-100.24-41.547-37.855 0-73.453 14.758-100.24 41.547-26.793 26.793-41.574 62.414-41.629 100.3-0.046875 37.934 14.672 73.57 41.453 100.35 27.598 27.598 63.875 41.402 100.16 41.402zm-78.184-220.25c20.961-20.961 48.82-32.516 78.434-32.516 29.617 0 57.469 11.551 78.434 32.516 20.961 20.961 32.5 48.812 32.5 78.434 0 29.609-11.539 57.473-32.5 78.434-43.363 43.32-113.8 43.391-157.05 0.16797-20.941-20.949-32.453-48.824-32.418-78.496 0.046875-29.668 11.617-57.566 32.598-78.539z"/>
  <path d="m347.82 373.89-39.633 147.74 8.7812 18.152 116.35 50.234c3.3086 32.32 11.656 63.629 24.871 93.324l-75.516 101.45 1.4648 20.105 108.11 108.11 20.113 1.4688 101.44-75.508c29.695 13.215 61.012 21.562 93.324 24.863l50.234 116.34 18.172 8.7812 147.57-39.801 11.301-16.672-14.59-125.46c13.672-10.012 25.816-20.359 36.934-31.477 11.023-11.023 21.316-23.105 31.316-36.777l125.66 14.434 16.648-11.324 39.629-147.39-8.7773-18.152-116.35-50.234c-3.3086-32.309-11.648-63.629-24.871-93.324l75.52-101.45-1.4688-20.105-108.11-108.11-20.113-1.4688-101.44 75.508c-29.695-13.215-61.004-21.562-93.32-24.863l-50.234-116.34-18.137-8.793-147.57 39.453-11.336 16.672 14.594 125.83c-13.668 9.9883-25.754 20.285-36.773 31.309-11.113 11.105-21.461 23.25-31.465 36.922l-125.64-14.746zm147.8 35.125 14.469-6.5156c10.633-15.301 21.539-28.488 33.352-40.297 11.699-11.711 24.82-22.551 40.113-33.164l6.5273-14.445-14.105-121.65 121.83-32.574 48.602 112.56 13.051 9.2773c34.883 2.4922 68.559 11.469 100.08 26.66l15.902-1.5195 98.113-73.039 89.266 89.266-73.039 98.121-1.5195 15.902c15.191 31.527 24.164 65.195 26.664 100.07l9.2656 13.059 112.56 48.598-32.711 121.7-121.5-13.961-14.426 6.5273c-10.633 15.301-21.48 28.43-33.176 40.129-11.816 11.816-24.996 22.719-40.297 33.332l-6.5234 14.457 14.105 121.32-121.84 32.863-48.59-112.54-13.051-9.2773c-34.887-2.4922-68.562-11.469-100.09-26.66l-15.902 1.5195-98.109 73.039-89.266-89.266 73.039-98.121 1.5234-15.902c-15.191-31.527-24.164-65.195-26.672-100.08l-9.2656-13.047-112.56-48.609 32.723-122z"/>
  <path d="m218.02 787.17c0 26.129 10.168 50.691 28.637 69.16 18.582 18.574 43.73 28.441 69.16 28.441 13.34 0 26.762-2.7227 39.352-8.3242l-12.539-28.164c-24.992 11.094-54.801 5.6016-74.164-13.758-12.637-12.648-19.602-29.465-19.602-47.355 0-17.902 6.957-34.719 19.602-47.355 20.746-20.746 52.109-25.648 78.031-12.215l14.191-27.371c-37.898-19.672-83.723-12.504-114.03 17.781-18.473 18.457-28.641 43.02-28.641 69.16z"/>
  <path d="m151.12 663.69-78.699-9.0586-16.66 11.324-25.758 96.035 8.793 18.168 72.883 31.406c2.3086 19.695 7.3242 38.621 14.98 56.461l-47.312 63.523 1.4648 20.117 70.387 70.387 20.113 1.4688 63.535-47.32c17.828 7.6602 36.75 12.672 56.461 14.984l31.41 72.883 18.137 8.793 96.145-25.637 11.344-16.684-10.184-87.785-8.6133 1-10.859-15.203-4.8047 3.4336-6.3555 14.336 8.6484 74.531-70.398 18.781-29.754-69.039-13.039-9.2773c-22.441-1.625-43.73-7.2773-63.27-16.805l-15.961 1.4922-60.16 44.812-51.543-51.547 44.801-60.148 1.5-15.961c-9.5234-19.562-15.172-40.852-16.801-63.27l-9.2773-13.059-69.02-29.73 18.859-70.316 74.461 8.5664 14.449-6.5664c6.2227-9.0234 13.324-17.539 21.105-25.336 7.8672-7.8672 16.148-14.77 25.328-21.105l6.5547-14.445-8.5547-74.473 31.008-8.3477-8.0117-29.777-43.836 11.793-11.32 16.656 9.0391 78.711c-7.7773 5.8906-15.156 12.324-22.027 19.191-6.8828 6.8906-13.316 14.277-19.188 22.035z"/>
 </g>
</svg>
